<svg width="48" height="48" viewBox="0 0 48 48" fill="none" xmlns="http://www.w3.org/2000/svg">
<path d="M24 0C10.746 0 0 10.746 0 24C0 37.254 10.746 48 24 48C37.254 48 48 37.254 48 24C48 10.746 37.254 0 24 0ZM26.828 24C26.828 24 33.106 30.278 33.414 30.586C34.196 31.368 34.196 32.634 33.414 33.414C32.632 34.196 31.366 34.196 30.586 33.414C30.278 33.108 24 26.828 24 26.828C24 26.828 17.722 33.106 17.414 33.414C16.632 34.196 15.366 34.196 14.586 33.414C13.804 32.632 13.804 31.366 14.586 30.586C14.892 30.278 21.172 24 21.172 24C21.172 24 14.894 17.722 14.586 17.414C13.804 16.632 13.804 15.366 14.586 14.586C15.368 13.804 16.634 13.804 17.414 14.586C17.722 14.892 24 21.172 24 21.172C24 21.172 30.278 14.894 30.586 14.586C31.368 13.804 32.634 13.804 33.414 14.586C34.196 15.368 34.196 16.634 33.414 17.414C33.108 17.722 26.828 24 26.828 24Z" fill="white"/>
</svg>
