<svg width="302" height="256" viewBox="0 0 302 256" fill="none" xmlns="http://www.w3.org/2000/svg">
<path d="M143.937 41.423L151.001 51.9768L158.065 41.4228C171.355 21.5656 193.975 8.5 219.574 8.5C260.339 8.5 293.5 41.6378 293.5 82.335C293.5 127.777 261.347 167.908 226.29 197.9C191.593 227.584 156.098 245.586 153.4 246.933L153.394 246.936C152.642 247.312 151.824 247.5 151.001 247.5C150.181 247.5 149.36 247.312 148.603 246.934C145.904 245.585 110.407 227.583 75.7107 197.9C40.6533 167.907 8.5 127.777 8.5 82.335C8.5 41.6379 41.6613 8.5 82.4271 8.5C108.026 8.5 130.647 21.5667 143.937 41.423Z" stroke="#212121" stroke-width="17"/>
</svg>
