<svg width="342" height="296" viewBox="0 0 342 296" fill="none" xmlns="http://www.w3.org/2000/svg">
<path d="M239.574 10C212.384 10 187.913 21.7898 171 40.4844C154.088 21.7908 129.618 10 102.427 10C51.4636 10 10 51.4012 10 102.335C10 156.332 47.7461 201.211 83.6843 231.957C120.047 263.066 157.078 281.856 160.337 283.484C163.69 285.159 167.344 286 171.001 286C174.651 286 178.305 285.163 181.663 283.485C184.924 281.857 221.954 263.066 258.316 231.958C294.254 201.212 332 156.332 332 102.335C332 51.4013 290.536 10 239.574 10Z" stroke="#212121" stroke-width="20"/>
</svg>
