<svg width="34" height="34" viewBox="0 0 34 34" fill="none" xmlns="http://www.w3.org/2000/svg">
<path d="M24.1236 0H9.87647C4.43056 0 0 4.43056 0 9.87647V24.1235C0 29.5694 4.43056 34 9.87647 34H24.1235C29.5694 34 34 29.5694 34 24.1236V9.87647C34 4.43056 29.5694 0 24.1236 0ZM31.3438 24.1235C31.3438 28.1048 28.1048 31.3438 24.1236 31.3438H9.87647C5.89521 31.3438 2.65625 28.1048 2.65625 24.1236V9.87647C2.65625 5.89521 5.89521 2.65625 9.87647 2.65625H24.1235C28.1048 2.65625 31.3438 5.89521 31.3438 9.87647V24.1235Z" fill="#373737"/>
<path d="M17 7.83594C11.9469 7.83594 7.83594 11.9469 7.83594 17C7.83594 22.0531 11.9469 26.1641 17 26.1641C22.0531 26.1641 26.1641 22.0531 26.1641 17C26.1641 11.9469 22.0531 7.83594 17 7.83594ZM17 23.5078C13.4116 23.5078 10.4922 20.5884 10.4922 17C10.4922 13.4116 13.4116 10.4922 17 10.4922C20.5884 10.4922 23.5078 13.4116 23.5078 17C23.5078 20.5884 20.5884 23.5078 17 23.5078Z" fill="#373737"/>
<path d="M26.2969 9.03125C27.0304 9.03125 27.625 8.43663 27.625 7.70312C27.625 6.96962 27.0304 6.375 26.2969 6.375C25.5634 6.375 24.9688 6.96962 24.9688 7.70312C24.9688 8.43663 25.5634 9.03125 26.2969 9.03125Z" fill="#373737"/>
</svg>
