<svg width="84" height="84" viewBox="0 0 84 84" fill="none" xmlns="http://www.w3.org/2000/svg">
<path d="M30.3131 14.2542C25.7819 14.2542 22.0957 17.9403 22.0957 22.4715C22.0957 27.0028 25.7819 30.6889 30.3131 30.6889C34.8443 30.6889 38.5305 27.0028 38.5305 22.4715C38.5305 17.9403 34.8443 14.2542 30.3131 14.2542Z" fill="#AFAFAF"/>
<path d="M75.7826 0H8.2174C3.68616 0 0 3.68616 0 8.2174V75.7826C0 80.3138 3.68616 84 8.2174 84H75.7826C80.3138 84 84 80.3138 84 75.7826V8.2174C84 3.68616 80.3138 0 75.7826 0ZM73.0434 48.1702L58.5455 33.672C57.4757 32.6023 55.7415 32.6023 54.6715 33.672L37.4348 50.9092L27.5018 41.8893C26.4321 40.8196 24.6981 40.8196 23.6284 41.8893L10.9566 53.6484V13.6956C10.9566 12.1816 12.1816 10.9564 13.6958 10.9564H70.3044C71.8184 10.9564 73.0436 12.1815 73.0436 13.6956V48.1702H73.0434Z" fill="#AFAFAF"/>
</svg>
