<svg width="330" height="330" viewBox="0 0 330 330" fill="none" xmlns="http://www.w3.org/2000/svg">
<path d="M195 150C222.57 150 245 127.57 245 100C245 72.43 222.57 50 195 50C167.43 50 145 72.43 145 100C145 127.57 167.43 150 195 150Z" fill="#BFBFBF"/>
<path d="M315 0H15C6.716 0 0 6.716 0 15V254.804C0 254.814 0 254.824 0 254.834V315C0 323.284 6.716 330 15 330H315C323.284 330 330 323.284 330 315V15C330 6.716 323.284 0 315 0ZM300 209.636L267.043 165.248C264.214 161.437 259.747 159.19 255 159.19C250.253 159.19 245.786 161.437 242.957 165.248L195.426 229.264L117.333 116.462C114.531 112.415 109.922 110 105 110C100.078 110 95.469 112.415 92.667 116.462L30 206.981V30H300V209.636Z" fill="#BFBFBF"/>
</svg>
