<svg width="16" height="16" viewBox="0 0 16 16" fill="none" xmlns="http://www.w3.org/2000/svg">
<g clip-path="url(#clip0)">
<path d="M5.83301 11.7415V14.8335C5.83301 15.0495 5.97167 15.2408 6.17701 15.3088C6.22834 15.3255 6.28101 15.3335 6.33301 15.3335C6.48901 15.3335 6.63967 15.2601 6.73567 15.1295L8.54434 12.6681L5.83301 11.7415Z" fill="white"/>
<path d="M15.79 0.0917492C15.6367 -0.0169175 15.4354 -0.0315842 15.2687 0.0557492L0.268696 7.88908C0.091363 7.98175 -0.0133037 8.17108 0.00136299 8.37042C0.0166963 8.57042 0.149363 8.74108 0.33803 8.80575L4.50803 10.2311L13.3887 2.63775L6.5167 10.9171L13.5054 13.3057C13.5574 13.3231 13.612 13.3324 13.6667 13.3324C13.7574 13.3324 13.8474 13.3078 13.9267 13.2598C14.0534 13.1824 14.1394 13.0524 14.1614 12.9064L15.9947 0.573083C16.022 0.386416 15.9434 0.201083 15.79 0.0917492V0.0917492Z" fill="white"/>
</g>
<defs>
<clipPath id="clip0">
<rect width="16" height="16" fill="white"/>
</clipPath>
</defs>
</svg>
