<svg width="496" height="435" viewBox="0 0 496 435" fill="none" xmlns="http://www.w3.org/2000/svg">
<path d="M164.711 426.369C164.711 429.335 166.358 432.055 168.977 433.441C171.594 434.826 174.776 434.648 177.222 432.973L232.312 395.357L164.712 363.137V426.369H164.711Z" fill="#FAFAFA"/>
<path d="M492.43 2.125C490.917 0.73 488.964 0 486.99 0C485.8 0 484.613 0.264 483.49 0.816L7.90426 234.104C3.04326 236.493 -0.0327371 241.457 0.000262903 246.887C0.0332629 252.31 3.16126 257.24 8.05726 259.576L133.399 319.3L384.019 113.31L164.454 334.096L320.599 408.496C322.517 409.415 324.611 409.872 326.683 409.872C328.451 409.872 330.202 409.55 331.869 408.895C335.506 407.457 338.396 404.577 339.839 400.939L494.435 10.939C495.659 7.87 494.861 4.361 492.43 2.125Z" fill="#FAFAFA"/>
</svg>
