<svg width="297" height="251" viewBox="0 0 297 251" fill="none" xmlns="http://www.w3.org/2000/svg">
<path d="M149.18 219.567L127.522 157.485C126.76 155.297 126.76 152.913 127.522 150.724L149.221 88.5161L138.555 27.3511C124.01 11.0661 102.881 0.788086 79.381 0.788086C35.611 0.789086 0 36.3981 0 80.1701C0 103.253 7.848 126.727 23.324 149.942C35.338 167.962 51.988 185.899 72.812 203.252C105.396 230.405 137.533 247.359 143.097 250.212L149.18 219.567Z" fill="white"/>
<path d="M217.619 0.789062C194.543 0.789062 173.748 10.6951 159.234 26.4721L169.898 87.6181C170.199 89.3401 170.054 91.1101 169.478 92.7611L148.08 154.107L169.478 215.446C170.082 217.174 170.21 219.029 169.855 220.824L165.251 244.015C178.649 236.355 201.31 222.319 224.189 203.253C245.013 185.899 261.664 167.963 273.677 149.942C289.154 126.727 297 103.253 297 80.1701C297 36.3981 261.391 0.789062 217.619 0.789062Z" fill="white"/>
</svg>
