<svg width="24" height="24" viewBox="0 0 24 24" fill="none" xmlns="http://www.w3.org/2000/svg">
<path d="M19 12.9999C18.7348 12.9999 18.4804 13.1053 18.2929 13.2928C18.1054 13.4803 18 13.7347 18 13.9999V14.3799L16.52 12.8999C15.9974 12.3814 15.2911 12.0905 14.555 12.0905C13.8189 12.0905 13.1126 12.3814 12.59 12.8999L11.89 13.5999L9.41 11.1199C8.88012 10.6155 8.17657 10.3342 7.445 10.3342C6.71343 10.3342 6.00988 10.6155 5.48 11.1199L4 12.5999V6.9999C4 6.73468 4.10536 6.48033 4.29289 6.29279C4.48043 6.10525 4.73478 5.9999 5 5.9999H12C12.2652 5.9999 12.5196 5.89454 12.7071 5.707C12.8946 5.51947 13 5.26511 13 4.9999C13 4.73468 12.8946 4.48033 12.7071 4.29279C12.5196 4.10525 12.2652 3.9999 12 3.9999H5C4.20435 3.9999 3.44129 4.31597 2.87868 4.87858C2.31607 5.44119 2 6.20425 2 6.9999V18.9999C2 19.7955 2.31607 20.5586 2.87868 21.1212C3.44129 21.6838 4.20435 21.9999 5 21.9999H17C17.7956 21.9999 18.5587 21.6838 19.1213 21.1212C19.6839 20.5586 20 19.7955 20 18.9999V13.9999C20 13.7347 19.8946 13.4803 19.7071 13.2928C19.5196 13.1053 19.2652 12.9999 19 12.9999ZM5 19.9999C4.73478 19.9999 4.48043 19.8945 4.29289 19.707C4.10536 19.5195 4 19.2651 4 18.9999V15.4299L6.9 12.5299C7.04691 12.3899 7.24206 12.3118 7.445 12.3118C7.64794 12.3118 7.84309 12.3899 7.99 12.5299L11.16 15.6999L15.46 19.9999H5ZM18 18.9999C17.9986 19.1913 17.9354 19.3772 17.82 19.5299L13.31 14.9999L14.01 14.2999C14.0817 14.2267 14.1673 14.1686 14.2617 14.1289C14.3561 14.0892 14.4576 14.0688 14.56 14.0688C14.6624 14.0688 14.7639 14.0892 14.8583 14.1289C14.9527 14.1686 15.0383 14.2267 15.11 14.2999L18 17.2099V18.9999ZM22.71 4.2899L19.71 1.2899C19.6149 1.19886 19.5028 1.12749 19.38 1.0799C19.1365 0.979878 18.8635 0.979878 18.62 1.0799C18.4972 1.12749 18.3851 1.19886 18.29 1.2899L15.29 4.2899C15.1968 4.38313 15.1228 4.49383 15.0723 4.61565C15.0219 4.73747 14.9959 4.86804 14.9959 4.9999C14.9959 5.2662 15.1017 5.52159 15.29 5.7099C15.4783 5.8982 15.7337 6.00399 16 6.00399C16.2663 6.00399 16.5217 5.8982 16.71 5.7099L18 4.4099V9.9999C18 10.2651 18.1054 10.5195 18.2929 10.707C18.4804 10.8945 18.7348 10.9999 19 10.9999C19.2652 10.9999 19.5196 10.8945 19.7071 10.707C19.8946 10.5195 20 10.2651 20 9.9999V4.4099L21.29 5.7099C21.383 5.80362 21.4936 5.87802 21.6154 5.92879C21.7373 5.97956 21.868 6.00569 22 6.00569C22.132 6.00569 22.2627 5.97956 22.3846 5.92879C22.5064 5.87802 22.617 5.80362 22.71 5.7099C22.8037 5.61693 22.8781 5.50633 22.9289 5.38447C22.9797 5.26261 23.0058 5.13191 23.0058 4.9999C23.0058 4.86788 22.9797 4.73718 22.9289 4.61532C22.8781 4.49346 22.8037 4.38286 22.71 4.2899V4.2899Z" fill="#BDBDBD"/>
</svg>
